<?xml version="1.0" encoding="utf-8"?>
<!-- Generator: Adobe Illustrator 25.1.0, SVG Export Plug-In . SVG Version: 6.00 Build 0)  -->
<svg version="1.1" id="Layer_1" xmlns="http://www.w3.org/2000/svg" xmlns:xlink="http://www.w3.org/1999/xlink" x="0px" y="0px"
	 viewBox="0 0 1600 1200" style="enable-background:new 0 0 1600 1200;" xml:space="preserve">
<style type="text/css">
	.st0{fill:#FFFFFF;}
	.st1{fill:#F5EBDD;}
	.st2{fill:none;stroke:#FFFFFF;stroke-width:4;stroke-miterlimit:10;}
	.st3{fill:#3EC1F3;}
	.st4{fill:#EAA58B;}
	.st5{fill:#30242A;}
	.st6{fill:#320E3B;}
	.st7{fill:none;stroke:#BB7259;stroke-width:4;stroke-linecap:round;stroke-miterlimit:10;}
	.st8{fill:none;stroke:#E0C4F1;stroke-width:4;stroke-linecap:round;stroke-miterlimit:10;}
	.st9{fill:#E0C4F1;}
	.st10{clip-path:url(#SVGID_2_);}
	.st11{fill:none;stroke:#000000;stroke-width:4;stroke-linecap:round;stroke-linejoin:round;}
	.st12{fill:none;stroke:#F5EBDC;stroke-width:4;stroke-linecap:round;stroke-miterlimit:10;}
	.st13{fill:#A15842;}
	.st14{fill:none;stroke:#E0C4F1;stroke-width:4;stroke-linecap:round;stroke-linejoin:round;}
	.st15{fill:none;stroke:#BB7259;stroke-width:4;stroke-linecap:round;stroke-linejoin:round;}
	.st16{fill:#724342;}
	.st17{fill:none;stroke:#30242A;stroke-width:4;stroke-linecap:round;stroke-miterlimit:10;}
	.st18{fill:none;stroke:#000000;stroke-width:4;stroke-linecap:round;stroke-miterlimit:10;}
	.st19{fill:#4856DF;}
	.st20{fill:none;stroke:#4856DF;stroke-width:4;stroke-linecap:round;stroke-miterlimit:10;}
</style>
<path class="st0" d="M1350.3,185c24.7,0,44.7,20,44.7,44.7c0,0,0,0,0,0v423.7c0,24.7-20,44.7-44.7,44.7l0,0H800.7
	c-24.7,0-44.7-20-44.7-44.7V229.7c0-24.7,20-44.7,44.7-44.7H1350.3 M1350.3,181H800.7c-26.9,0-48.6,21.8-48.7,48.7v423.7
	c0,26.9,21.8,48.6,48.7,48.7h549.7c26.9,0,48.6-21.8,48.7-48.7V229.7C1399,202.8,1377.2,181,1350.3,181z"/>
<path class="st1" d="M800.7,185h549.7c24.7,0,44.7,20,44.7,44.7v423.7c0,24.7-20,44.7-44.7,44.7H800.7c-24.7,0-44.7-20-44.7-44.7
	V229.7C756,205,776,185,800.7,185z"/>
<line class="st2" x1="756" y1="281" x2="1397" y2="281"/>
<circle class="st0" cx="803" cy="232" r="17"/>
<circle class="st0" cx="854.5" cy="232" r="17"/>
<circle class="st0" cx="906" cy="232" r="17"/>
<path class="st0" d="M787.3,487c24.7,0,44.7,20,44.7,44.7v423.7c0,24.7-20,44.7-44.7,44.7H237.7c-24.7,0-44.7-20-44.7-44.7V531.7
	c0-24.7,20-44.7,44.7-44.7H787.3 M787.3,483H237.7c-26.9,0-48.6,21.8-48.7,48.7v423.7c0,26.9,21.8,48.6,48.7,48.7h549.7
	c26.9,0,48.6-21.8,48.7-48.7V531.7C836,504.8,814.2,483,787.3,483z"/>
<path class="st1" d="M237.7,487h549.7c24.7,0,44.7,20,44.7,44.7v423.7c0,24.7-20,44.7-44.7,44.7H237.7c-24.7,0-44.7-20-44.7-44.7
	V531.7C193,507,213,487,237.7,487z"/>
<line class="st2" x1="193" y1="583" x2="834" y2="583"/>
<circle class="st0" cx="240" cy="534" r="17"/>
<circle class="st0" cx="291.5" cy="534" r="17"/>
<circle class="st0" cx="343" cy="534" r="17"/>
<polygon class="st3" points="866.3,608.5 866,608.2 866,608.8 "/>
<path class="st4" d="M684,672c0,0,13-43,5-50c-9.7-8.5-26,19-39.2,52c-13.8,34.7-54,133-56,140c0,0-68.4-37.4-99-51
	c-27-12-59.9-16.4-59.9-16.4l-4.2-25.1c0,0,19.5,7,36.3-2.8s20.9-27.9,15.4-55.8c-3.3-16.5-3.2-37-6-55.2c-11.1,1.9-27.5-2-27.5-2
	c-22.3,25.1-46,30.7-46,30.7c-15.4-16.7-43.3-16.7-47.4,7c-4.6,26.2,27.9,33.5,27.9,33.5S390,715,376,753
	c-19.5,52.8-97.9,66.8-130,44c-58,41-6.7,165.6,42,224c40,48,182,23,182,23s16,12,35,16c34,67,48,48,48,48s12,13,21-1
	c18,1,17-10,1-48c18,22,35.6,22.1,36,16c1-16-52-72-85-86c-24.8-10.5-37-14-37-14l-5-81c0,0,106.1,58.3,156,31c64-35,90-207,90-207
	L684,672z"/>
<path class="st5" d="M376,753c14-38,7.3-76.1,7.3-76.1s-32.5-7.2-27.9-33.5c4.2-23.7,32.1-23.7,47.4-7c0,0,23.7-5.6,46-30.7
	c0,0,16.3,3.8,27.5,2c-2-12.6-5.3-24.1-12.1-32.7c-16.7-20.9-62.8-34.9-99-8.4s-33.5,69.8-32.1,86.5c0,0-62.7-15.4-96.1,31.8
	c-41,58,9,112,9,112C278.1,819.8,356.5,805.8,376,753z"/>
<path class="st6" d="M485.8,922.4L484,894h0.1l-8.4-138.2c-9.2-2.9-18.6-5.2-28.1-7.1L443,844h-78l-29.6-48.2
	c-10.6,5.2-21.9,8.8-33.6,10.5l44.6,110.4L363,958c0,0,38,2,72,7s54,10,54,10L485.8,922.4z"/>
<path class="st7" d="M695.9,664.4c-1.2,2.5-2.4,4.8-3.6,7.1c0,0,20.7,33-0.9,68.2"/>
<line class="st7" x1="591.5" y1="813.1" x2="581" y2="840"/>
<path class="st7" d="M579,1063.7c-4.2-9.6-9.5-20.8-14.1-29"/>
<path class="st7" d="M546.2,1044.6c12,21.1,21.4,44.8,27.3,61.4"/>
<path class="st7" d="M527.5,1056.5c9,16.5,17.8,35.8,24.3,50.9"/>
<line class="st8" x1="487.5" y1="934.5" x2="354.5" y2="933.5"/>
<path class="st9" d="M301.8,806.3c-21.5,3.2-42.6,0.1-55.8-9.3c-42.1,29.8-26.6,103.7,3.8,164.3l96.6-44.6L301.8,806.3z"/>
<path class="st9" d="M376,753c-7.2,19.6-22.6,33.8-40.6,42.8L365,844h78l4.6-95.2c-7.7-1.5-12.7-2.2-12.7-2.2L433,735h-51.8
	C379.9,741.1,378.2,747.1,376,753z"/>
<path class="st9" d="M494.8,763c-6.2-2.7-12.6-5.1-19.1-7.1l8.4,138.2c13.3,7,26.9,13.3,40.9,18.9L566,799
	C543.5,787,512.7,771,494.8,763z"/>
<ellipse transform="matrix(0.866 -0.5 0.5 0.866 -375.1449 211.8018)" class="st5" cx="207.7" cy="805.9" rx="56" ry="48.6"/>
<g>
	<defs>
		<ellipse id="SVGID_1_" transform="matrix(0.866 -0.5 0.5 0.866 -375.1449 211.8018)" cx="207.7" cy="805.9" rx="56" ry="48.6"/>
	</defs>
	<clipPath id="SVGID_2_">
		<use xlink:href="#SVGID_1_"  style="overflow:visible;"/>
	</clipPath>
	<g class="st10">
		<path class="st11" d="M221.5,751.5c0,0,7,42,41,55"/>
	</g>
</g>
<line class="st12" x1="977.5" y1="504.5" x2="981.5" y2="534.5"/>
<path class="st13" d="M1310,469c0,0,45-53-5-98c-30.6-27.5-67.3-19.8-67.3-19.8c1.4-16.7,4.2-60-32.1-86.5s-82.3-12.6-99.1,8.4
	s-12.6,60-18.1,87.9s-1.4,46,15.3,55.8s36.3,2.8,36.3,2.8l-4.2,25.1c0,0-32.9,4.4-59.9,16.4c-30.6,13.6-99,51-99,51
	c-2-7-13-121-18-158c-3.8-28.2-17-63-27-56c-9.7,6.8-6,29-6,29l-51,53c0,0-25.2,181.7,35,231c44,36,159-22,159-22l-15,109h137.2
	c0,0-25.7,6.8-79.2,31c-62,28-98,106-94,112s16,1,32-19c-14,52,0,48,9,47c9.2,13.2,21-3,21-3s16,15,41-55c11.4-5.4,21.8-12.4,31-21
	c0,0,159-10,190-66S1352,522,1310,469z"/>
<circle class="st5" cx="1102.2" cy="344.1" r="4.2"/>
<line class="st7" x1="362.5" y1="956.5" x2="339.5" y2="955.5"/>
<path class="st7" d="M430.4,723.9c-6-2.1-11.9-4.6-17.5-7.7"/>
<path class="st11" d="M331.5,652.9c0.8,7.6,1.8,17.1,2.8,24.6"/>
<path class="st14" d="M425.5,933.4c0,0-23.2-32.8-12.4-37.1C421.7,892.8,424.2,918.3,425.5,933.4z"/>
<path class="st14" d="M426.2,934c0,0,11.4-26.3,18.5-22.1C450.5,915.3,435.3,927.1,426.2,934z"/>
<line class="st7" x1="437.2" y1="747.3" x2="439" y2="758"/>
<line class="st7" x1="387.4" y1="654.5" x2="375" y2="647.5"/>
<path class="st15" d="M446.9,677.8c0.7,13.1,14.2,14.2,17.5,5L446.9,677.8z"/>
<circle class="st16" cx="438.8" cy="650.7" r="4.2"/>
<circle class="st16" cx="469.7" cy="643.2" r="4.2"/>
<path class="st7" d="M459.1,655.7c1,2.7,1.9,5.6,1.6,6.7c-0.4,1.3-1.3,2.4-2.4,3.2"/>
<circle class="st9" cx="379.5" cy="681.5" r="12.5"/>
<path class="st6" d="M1163.1,746.8l2.6,5.8l15.4,34.5c47.4-5.9,138.3-22.2,160.9-63.1c31-56,10-202-32-255l0,0
	c-35,38.5-89.1,28-110.8-4c-4,1-8.1,1.7-12.2,2c-6.4,0.6-12.9,0.3-19.2-0.8c-7.6-1.3-14.8-4.3-21-8.9c-7.9-5.9-10.8-12.4-10.8-12.4
	l-1.3-0.2c-6.1,0.9-34.7,5.5-58.7,16.2c-30.6,13.6-99,51-99,51c-0.9-3.1-3.6-27.9-6.8-57.5l-38.8,15l-4.2,1.6l-20.1,7.8l-36.5,14.1
	c2.6,47.1,12.5,95.9,39.5,117.9c44,36,159-22,159-22l-15,109h137.2c0,0-14.1,3.8-43,15.5l6.7,14.9L1163.1,746.8z"/>
<path class="st9" d="M974,567c-25.4,0-46,20.6-46,46c0,2.4,0.2,4.8,0.5,7.1c26.2,7,62.3-1.2,91.3-11C1017.8,585.3,997.9,567,974,567
	z"/>
<path class="st9" d="M929,484c0-4.3-0.6-8.7-1.8-12.8l-20.1,7.8l-36.5,14.1c0.7,12.1,1.8,24.2,3.6,36.1c24.9,4.9,49.1-11.4,54-36.3
	C928.7,489.9,929,487,929,484z"/>
<path class="st9" d="M1062,516c25.4,0,46-20.6,46-46c0-6.4-1.4-12.8-4-18.7c-9.6,2.5-18.9,5.8-28,9.7c-14.1,6.3-36.2,17.6-55.9,27.9
	C1027.5,505.4,1043.9,516,1062,516z"/>
<circle class="st9" cx="1174" cy="575" r="46"/>
<path class="st9" d="M1084,648c-8.5,0-16.8,2.3-24,6.8l-6,43.2h75.8c0.1-1.3,0.2-2.7,0.2-4C1130,668.6,1109.4,648,1084,648z"/>
<path class="st9" d="M1249.1,493.4c0,0.9-0.1,1.7-0.1,2.6c0,25.4,20.6,46,46,46c16.8,0,32.2-9.1,40.3-23.8
	c-7.1-19.8-15.6-37-25.3-49.2l0,0C1292.3,488.4,1269.8,495.4,1249.1,493.4z"/>
<path class="st9" d="M1292,688c0,24.2,18.7,44.2,42.8,45.9c2.8-3,5.2-6.3,7.2-9.9c10.2-18.4,14.8-46.6,14.8-78
	c-23.2-10.4-50.4,0-60.8,23.2C1293.4,675.1,1292,681.5,1292,688z"/>
<path class="st9" d="M1195,734c-11.9,0-23.3,4.6-31.9,12.8l2.6,5.8l15.4,34.5c20.1-2.4,40-5.9,59.8-10.3
	C1239.2,752.7,1219.1,734,1195,734z"/>
<path class="st12" d="M1272.5,669.5c-26.9,9.2-63.1,20.3-85.5,27.5"/>
<line class="st12" x1="1244" y1="572.3" x2="1253.5" y2="675.5"/>
<path class="st17" d="M1047.3,824.6c3.3-10.1,10.3-30.9,16.4-44.2"/>
<path class="st17" d="M1083.2,788.7c-13.9,30-22.1,64.2-25.2,78.4"/>
<path class="st17" d="M1102.8,798.5c-9,20.8-16.9,49.1-21.3,66.5"/>
<line class="st12" x1="1072.2" y1="553.5" x2="1066.8" y2="589.8"/>
<path class="st5" d="M1305,371c-30.6-27.5-67.3-19.8-67.3-19.8c1.4-16.7,4.2-60-32.1-86.5s-82.3-12.6-99.1,8.4
	c-6.8,8.5-10.2,20.1-12.1,32.6c11.1,1.9,27.5-2,27.5-2c22.3,25.1,46,30.7,46,30.7c15.3-16.7,43.2-16.7,47.4,7
	c4.6,26.2-27.9,33.5-27.9,33.5s-6.9,37.4,4.5,75.1c1.6,5.3,4,10.4,7.2,15c21.7,32,75.8,42.5,110.8,4c1.7-2.1,3.3-4.4,4.8-6.7
	C1324.9,446.7,1344.3,406.4,1305,371z"/>
<path class="st17" d="M1139.9,421.3c6.5-1.9,12.7-4.5,18.6-7.8"/>
<path class="st18" d="M1239.3,350.9c-0.8,7.6-1.8,17.1-2.8,24.6"/>
<line class="st17" x1="1183.4" y1="352.5" x2="1195.8" y2="345.5"/>
<path class="st17" d="M1112.6,384.9c2.3,1.4,10.9,2.5,14.3-4"/>
<circle class="st5" cx="1135.2" cy="349.6" r="4.2"/>
<path class="st17" d="M1112.1,359.8c-0.6,2.8-1.2,5.8-0.7,6.8c0.6,1.2,1.6,2.2,2.8,2.8"/>
<ellipse transform="matrix(0.2258 -0.9742 0.9742 0.2258 511.0615 1330.9966)" class="st18" cx="1092.9" cy="344" rx="20" ry="18"/>
<ellipse transform="matrix(0.2258 -0.9742 0.9742 0.2258 538.3135 1379.2815)" class="st18" cx="1136.9" cy="351" rx="20" ry="18"/>
<line class="st18" x1="1111.5" y1="346.5" x2="1118.5" y2="347.5"/>
<path class="st17" d="M913.5,332.5c0,0,19,16,21,20c0,0-31,32-7,71"/>
<path class="st13" d="M926,327c-7-6-20.5-9.9-27-6c-11.1,6.6-8.3,19.3-8.3,19.3s-18-2.8-17.8,15.6c0,0-14.5,6.3-8.2,20.8
	c0,0-12.5,3.2-6.6,18.6c4.9,12.6,16,19.2,22.9,22.6c6,3,15.2-1.3,12-13c0,0,7,2,11-2c5.5-5.5,3-16,3-16s7,2,12-2c6.1-4.9,3-14,3-14
	c4.6-0.6,8.4-3.7,10-8c4-10-11-22-11-22L926,327z"/>
<path class="st17" d="M864,377.4c8.8,10.7,18.5,20.6,29,29.6"/>
<path class="st17" d="M873,355.9c10.3,12.6,22.1,24,35.1,33.8"/>
<path class="st17" d="M889,341.2c9.4,12.4,20.8,23.2,33.7,32.1"/>
<path class="st17" d="M913.5,332.5c0,0,9.4,7.9,15.6,14"/>
<g>
	<path class="st4" d="M690,654.1c0,0-13,12-8.7,20.9c1.8,3.9,5.5,6.4,9.7,6.7c0,0-2.2,8.6,3.7,12.7c4.9,3.3,11.1,1,11.1,1
		s-1.6,9.8,3.8,14.5c3.9,3.4,10.2,1.1,10.2,1.1c-2.2,10.9,6.6,14.3,11.9,11.1c6-3.6,15.9-10.4,19.5-22.2c4.5-14.6-7.3-16.7-7.3-16.7
		c4.9-13.7-8.9-18.6-8.9-18.6c-1-16.9-17.4-13.2-17.4-13.2s1.7-11.9-8.9-17.2c-6.3-3.1-18.4,1.3-24.4,7.3L690,654.1z"/>
	<path class="st7" d="M720,712.9c9-9,17.3-18.7,24.7-29.1"/>
	<path class="st7" d="M705.1,697.9c11.3-9.9,21.3-21.1,30-33.3"/>
	<path class="st7" d="M686.5,684.1c12.7-9.8,23.7-21.6,32.7-34.8"/>
	<path class="st7" d="M682.9,659.7c5.4-6,13.4-13.9,13.4-13.9"/>
</g>
<circle class="st0" cx="752" cy="934.5" r="42.9"/>
<path class="st19" d="M752,909.4L752,909.4c6.7,0,12,5.4,12,12v14.5c0,6.7-5.4,12-12,12l0,0c-6.7,0-12-5.4-12-12v-14.5
	C740,914.8,745.3,909.4,752,909.4z"/>
<line class="st20" x1="752" y1="944.1" x2="752" y2="957.6"/>
<line class="st20" x1="745.1" y1="957.6" x2="758.9" y2="957.6"/>
</svg>
