<?xml version="1.0" encoding="utf-8"?>
<!-- Generator: Adobe Illustrator 25.1.0, SVG Export Plug-In . SVG Version: 6.00 Build 0)  -->
<svg version="1.1" id="Layer_1" xmlns="http://www.w3.org/2000/svg" xmlns:xlink="http://www.w3.org/1999/xlink" x="0px" y="0px"
	 viewBox="0 0 1600 1200" style="enable-background:new 0 0 1600 1200;" xml:space="preserve">
<style type="text/css">
	.st0{fill:#855914;}
	.st1{fill:none;stroke:#A15842;stroke-width:4;stroke-miterlimit:10;}
	.st2{fill:#403F40;}
	.st3{fill:#A7A7A7;}
	.st4{fill:none;stroke:#A15842;stroke-width:4;stroke-linecap:round;stroke-linejoin:round;}
	.st5{fill:none;stroke:#A7A7A7;stroke-width:4;stroke-linecap:round;stroke-linejoin:round;}
	.st6{fill:#320E3B;}
	.st7{fill:#30242A;}
	.st8{fill:#E8D7F1;}
	.st9{fill:#A15842;}
	.st10{fill:none;stroke:#513258;stroke-width:4;stroke-linecap:round;stroke-miterlimit:10;}
	.st11{fill:#262A42;}
	.st12{fill:#E0C4F1;}
	.st13{fill:none;stroke:#30242A;stroke-width:4;stroke-linecap:round;stroke-miterlimit:10;}
	.st14{fill:none;stroke:#A15842;stroke-width:4;stroke-linecap:round;stroke-miterlimit:10;}
	.st15{fill:none;stroke:#262A42;stroke-width:4;stroke-linecap:round;stroke-miterlimit:10;}
	.st16{fill:none;stroke:#320E3B;stroke-width:4;stroke-linecap:round;stroke-miterlimit:10;}
	.st17{fill:none;stroke:#320E3B;stroke-width:4;stroke-linecap:round;stroke-linejoin:round;}
	.st18{fill:none;stroke:#30242A;stroke-width:4;stroke-linecap:round;stroke-linejoin:round;}
</style>
<rect x="436.1" y="624.6" class="st0" width="24.6" height="417.4"/>
<line class="st1" x1="460.7" y1="630.3" x2="436.1" y2="630.3"/>
<path class="st2" d="M948.5,791.4H694.2l4.3-17.1h111.6l42.6-166.5c11.9-46.7,54-79.3,102.1-79.3l0,0c57.3,0,99.2,54,85,109.5
	l-26.3,102.9C1005.9,770.6,979.1,791.4,948.5,791.4z"/>
<rect x="696.1" y="949" class="st3" width="162.1" height="18.1"/>
<path class="st3" d="M884.9,1032.3l-42.2-251H711.6l-42.2,251c-0.8,4.5,2.3,8.8,6.8,9.6c0.5,0.1,0.9,0.1,1.4,0.1l0,0
	c3.9,0,7.3-2.7,8.1-6.6L741,781.3h72.4l55.2,254.1c0.8,3.8,4.2,6.6,8.1,6.6l0,0c4.6,0,8.3-3.7,8.3-8.3
	C885,1033.2,885,1032.7,884.9,1032.3z"/>
<rect x="830.4" y="949" class="st0" width="162.1" height="18.1"/>
<path class="st0" d="M1019.2,1032.3l-42.2-251H845.9l-42.2,251c-0.8,4.5,2.3,8.8,6.8,9.6c0.5,0.1,0.9,0.1,1.4,0.1l0,0
	c3.9,0,7.3-2.7,8.1-6.6l55.2-254.1h72.4l55.2,254.1c0.8,3.8,4.2,6.6,8.1,6.6l0,0c4.6,0,8.3-3.7,8.3-8.3
	C1019.3,1033.2,1019.3,1032.7,1019.2,1032.3z"/>
<path class="st2" d="M886.7,740.9l16.1-62.9H796.2c-43,0-80.5,29.1-91.2,70.8l-10.9,42.6h127.5C852.4,791.4,879.1,770.6,886.7,740.9
	z"/>
<line class="st4" x1="701.1" y1="772.7" x2="836.4" y2="772.7"/>
<line class="st4" x1="810.6" y1="772" x2="834.3" y2="679.3"/>
<line class="st5" x1="1028" y1="675.8" x2="964" y2="675.8"/>
<line class="st5" x1="1040" y1="630.8" x2="958" y2="630.8"/>
<path class="st6" d="M741.3,610.5c0,0-80.2,21.8-114.3,38.9c-56.2,28.1-56,46.6-90.3,150.4c-31.6,95.9-35.1,142.4-78.7,144.2
	c-33.3,1.4-44.2,12.3-49.6,27.2l131.8,62.5c3.1,1.5,6.9,0.3,8.5-2.8l0,0c1.7-3.1,0.6-7-2.5-8.8l-2.8-1.6
	c12.2-14.8,35.9-46.5,59.4-94.5l15,7c0,0,24.2-31.5,28.1-67.2c5-46.1,2-77.2,23.1-95.3l245.7-160.2L741.3,610.5z"/>
<path class="st7" d="M445,951.5c2.6-5.4,17.1-38.5,25.5-34.5c10.9,5.2-17.3,38.4-17.3,38.4L445,951.5z"/>
<path class="st6" d="M408.4,971.8l131.8,62.5c3.3,1.6,7.2,0.2,8.7-3.1c1.5-3.1,0.3-6.8-2.6-8.5l-2.8-1.6l0.3-0.3l-90.6-42.8
	c1.4-3.8,2.3-7.7,2.8-11.6c13.6,2.3,41,4.9,41.1-6.4c0.1-10.5-29.8-6.3-40.8-3.3c-0.2-4.1-1-8.1-2.3-11.9
	C423.8,946.9,413.5,957.5,408.4,971.8z"/>
<path class="st8" d="M627,649.4c-6.3,3.2-11.9,6.2-16.9,9.2l-7.7,24.6l29.6-20.8l27.3,21.8l-10.1-29.8l30.9-14.2l-23.9-3
	C646.3,640.8,636.5,644.8,627,649.4z"/>
<polygon class="st8" points="714.2,636.6 712.2,649.6 725.2,644.6 "/>
<polygon class="st8" points="639,701.8 620,726.9 592.9,713.8 608.9,740.9 583.8,762 615.9,758 627,795.1 638,758 673.1,747.9
	639,733.9 "/>
<path class="st8" d="M531.9,893.2l2.3-6.7l32-1.7l-26-17.7l11.6-27.7l-26.2,17.5l-5-5.4c-4,13.2-7.5,24.9-11,35.2h0.2
	c0.4-1.1,0.8-2.3,1.1-3.4L531.9,893.2z"/>
<path class="st9" d="M531.9,893.2l-21-9.9c-0.4,1.2-0.8,2.3-1.1,3.4c-12.7,37.8-24.2,56.7-51.7,57.9c-1.4,0-2.6,0.1-3.9,0.2
	c1.3,3.8,2.1,7.8,2.3,11.9c11-3,40.9-7.2,40.8,3.3c-0.2,11.3-27.6,8.8-41.1,6.4c-0.5,4-1.5,7.9-2.9,11.6l90.6,42.8
	c12.3-15,35.8-46.5,59.1-94.1L531.9,893.2z"/>
<path class="st8" d="M611.9,817.1l-3,27.1l-28.1-1l24.1,18.1l-9,32.1l24.1-21.1l21.7,14.4c0.6-1.9,1.2-3.8,1.7-5.8l-8.3-20.7
	l12.9-14.1c0.2-2.6,0.4-5.2,0.6-7.7l-22.5,3.8L611.9,817.1z"/>
<path class="st8" d="M549.4,760.8c-2.5,7.8-5.2,16.3-8.2,25.5l26.7,1.6L549.4,760.8z"/>
<path class="st7" d="M643.6,1005.1c0.4-6,1.7-42.1,11-41.5c12,0.8-2,42.1-2,42.1L643.6,1005.1z"/>
<path class="st6" d="M865.7,612c0,0-100.3,18.6-155.5,41.7c-55.7,23.3-55.2,64.7-45.1,177c9,100.6,25.1,149.4-8,164.5
	c-30.3,13.8-40.9,31.1-39.4,46.9H767c3.5,0,6.4-2.9,6.4-6.4l0,0l0,0c0-3.5-2.9-6.4-6.4-6.4l0,0h-2.5c4.7-15.4,11.5-45.5,12.5-95.3
	h18.5c0,0,9.5-44-1-83.2c-11-41.1-21.1-48.1-27.1-76.2h89.9c68.6,0,120-63.5,105.1-130.5c-4.7-20.9-11.4-32-11.4-32L865.7,612z"/>
<polygon class="st8" points="803.5,670.7 785.1,693.9 756.4,684 773.4,711.8 751.3,741.9 780.4,729.9 796.6,759.8 798.5,726.9
	826.5,720.8 802.5,705.8 "/>
<path class="st8" d="M763.4,849.5l17,27.8l-22.1,30.1l29.1-12l10.8,19.9c1.6-15.4,2.4-38.3-2.7-60.2l-3.4,4.3L763.4,849.5z"/>
<path class="st8" d="M688.5,933.9l-1.3-15.5l32.6-12.6l-30.8-6.4l3.4-33.8l-20,26.2l-0.6-0.2c1.9,16.2,3.6,30.3,4.5,42.5v-0.1
	L688.5,933.9z"/>
<path class="st9" d="M767,1029.2h-2.5c4.7-15.4,11.5-45.5,12.5-95.3H676.2v0.1c0.1,1,0.2,2,0.2,3c0,0.1,0,0.2,0,0.3
	c2.1,31.2-1.3,49.5-19.4,57.7c-30.3,13.8-40.9,31.1-39.4,46.9H767c3.5,0,6.4-2.9,6.4-6.4C773.4,1032,770.5,1029.1,767,1029.2
	L767,1029.2z"/>
<polygon class="st8" points="900.7,614.6 854.7,618.7 859.5,637.2 830,652.9 866.7,657.8 879.1,685.3 891.9,656.8 929.2,650.9
	896.8,634.2 "/>
<path class="st8" d="M681.1,744.9l11-35.1l32.1,5l-25.1-22.1l18-21.1l-33.1,12l-5.3-9.1c-8.5,9.6-13.7,21.6-16.4,37l5.6,0.2
	L681.1,744.9z"/>
<path class="st8" d="M767,634.8c-6.8,1.9-13.5,3.8-20.1,5.9l26.5,18L767,634.8z"/>
<polygon class="st8" points="723.3,797.1 709.2,768 702.2,800.1 676.1,798.1 700.2,819.1 685.2,854.2 711.3,829.9 732.9,854.8
	726.3,817.1 748.3,788 "/>
<path class="st6" d="M663.7,1017.5c13.3-3.7,39.1-13.1,34.5-23.4c-4.4-9.6-29.7,7-38.3,14.4c-2.2-4-5-7.6-8.2-10.8
	c-26.2,13.3-35.4,29.5-34,44.3H767c3.5,0,6.4-2.9,6.4-6.4l0,0l0,0c0-3.5-2.9-6.4-6.4-6.4l0,0H666.1
	C665.7,1025.2,664.9,1021.3,663.7,1017.5z"/>
<path class="st10" d="M786.2,630.4c-26.8,6.8-55.3,15.2-77,24.2C663,674,655.5,705.8,660,780.2"/>
<rect x="1101.1" y="624.6" class="st0" width="24.6" height="417.4"/>
<line class="st1" x1="1125.7" y1="630.3" x2="1101.1" y2="630.3"/>
<path class="st11" d="M769.4,310.7c-14-2-46.1,13-47.1,42.8s25.5,39.3,29.8,41.4l61.6-9.6l4.2-68L769.4,310.7z"/>
<circle class="st11" cx="878.3" cy="188.9" r="47.9"/>
<path class="st8" d="M847.2,221.8c2.9,1.4-21.7-57-34.2-47.9C801.2,182.5,832.4,215,847.2,221.8z"/>
<path class="st8" d="M848.6,225.4c2.7,3.2,65.4-18.8,56.7-31.4C897,181.8,845.9,222.2,848.6,225.4z"/>
<path class="st9" d="M931.8,385.9c0,0,42.1-35.1,15-74.2c-17.3-24.9-64.2-15-64.2-15c1.1-13.7,4.9-53.1-24.8-74.8s-67.3-10.3-81,6.8
	s-10.3,49.1-14.8,71.9s-1.5,38.3,12.5,45.6c12.8,6.6,27.8,2.6,27.8,2.6l-1.6,24.1c0,0-29,1.1-46.8,7.5
	c-42.8,15.5-118,121.8-118,121.8c-47.1-2-91.3-4-91.3-4l23.1,68.2c0,0,58.2,19,100.3,8c42.7-11.2,83.2-71.2,83.2-71.2l14,40.1
	l-24.1,67.2h209.6l-35.1-62.2C921.8,493.2,931.8,385.9,931.8,385.9z"/>
<path class="st12" d="M864.5,370.4l-55,99.7L787,373.9c-9.9,1-23.1,2.9-32.8,6.5C711.2,395.9,636,502.2,636,502.2
	c-47.1-2-91.3-4-91.3-4l23.1,68.2c0,0,58.2,19,100.3,8c42.7-11.2,83.2-71.2,83.2-71.2l14,40.1l-24.1,67.2h209.6l-35.1-62.2
	c6-55.2,16-162.5,16-162.5c-9.3-5.7-19.5-9.7-30.1-12C889.7,371.2,876.5,372.8,864.5,370.4z"/>
<path class="st2" d="M579.7,603.5h173.7l-39.5-124.7c-2.4-7.5-9.4-12.7-17.3-12.7H549.8c-10,0-18.1,8.1-18.1,18.1
	c0,1.9,0.3,3.7,0.9,5.5l32.6,103.1C567.1,599.2,573,603.5,579.7,603.5z"/>
<path class="st8" d="M605.5,522.5c4.6-6.3,25.5,10.3,27.1,11.7c0.8-1.4,11.7-18,19.7-11.7c6.9,5.5-8.3,29.8-12.3,36.1
	c-0.7,0.7-1.8,0.8-2.6,0.1c0,0-0.1-0.1-0.1-0.1C629.8,552.4,601.5,528,605.5,522.5z"/>
<ellipse transform="matrix(0.9548 -0.2974 0.2974 0.9548 -125.3639 210.1067)" class="st8" cx="627.9" cy="517.1" rx="3.3" ry="10.1"/>
<path class="st2" d="M854.2,589.5c1.8,5.7-1.4,11.7-7.1,13.5c-1,0.3-2.1,0.5-3.2,0.5H579.7c-6.6,0-12.5-4.3-14.5-10.6l-1.1-3.4
	L854.2,589.5z"/>
<rect x="393.8" y="603.5" class="st0" width="774.2" height="25.1"/>
<path class="st2" d="M1013.5,740.9l16.1-62.9h-93.8c-43,0-80.5,29.1-91.2,70.8l-10.9,42.6h114.8
	C979.1,791.4,1005.9,770.6,1013.5,740.9z"/>
<line class="st5" x1="835.9" y1="774.9" x2="832.2" y2="790.6"/>
<path class="st9" d="M536.4,501.8c-11.7,5.8-17.5,15.6-17.5,22.4c0,9.9,10.1,11.8,10.1,11.8s-7.5,11.9,5.6,17.4
	c0,0,0,12.2,12.2,12.2c0,0-1.6,9.5,11.1,10.4s25.9-5.8,27-10.1c1.3-5.1-2.2-9.3-11.4-10.7c0,0,12.5-5.8,10.5-13.2
	s-10.4-7.2-10.4-7.2s8.1-4.8,3.8-12s-12.6-4.7-12.6-4.7s2.2-5-1.6-8.8c-4.5-4.5-23.8,1.2-23.8,1.2L536.4,501.8z"/>
<path class="st13" d="M546.9,566.1c10.5-2.5,20.7-6.2,30.5-11"/>
<path class="st13" d="M534.5,553.4c14.6-4,28.5-10.1,41.4-18.1"/>
<path class="st13" d="M528,537.4c13.5-4,26.3-10.2,37.8-18.3"/>
<path class="st11" d="M946.9,311.7c-17.3-24.9-64.2-15-64.2-15c1.1-13.7,4.9-53.1-24.8-74.8s-67.3-10.3-81,6.8
	c-5.6,7-8.3,16.4-9.9,26.7c9.1,1.5,22.5-1.6,22.5-1.6c18.2,20.5,34.6,23.8,34.6,23.8c12.8-12.8,35.2-12.4,38.8,7
	c3.8,20.1-28.3,29.1-28.3,29.1s-3,36.1,13,49.1c4.9,3.9,10.7,6.5,16.9,7.6c12,2.4,25.2,0.8,37.3,3.5c10.6,2.3,20.8,6.3,30.1,12
	c3.7-3.2,7-6.8,10-10.7C952.3,361.9,964.9,337.7,946.9,311.7z"/>
<path class="st14" d="M808.5,246.5c-6,5-13,8-21.1,10"/>
<path class="st15" d="M802.1,351.1c4.7-1.6,9.1-3.6,13.4-6"/>
<line class="st14" x1="835.8" y1="293.6" x2="844.9" y2="287.9"/>
<path class="st15" d="M783.5,320.3c1.9,1.2,9,2.1,11.8-3.4"/>
<circle class="st7" cx="802" cy="291.2" r="3.4"/>
<circle class="st7" cx="773.7" cy="286.7" r="3.4"/>
<path class="st14" d="M783.3,299.9c-0.7,2.1-1.3,4.5-0.9,5.3c0.5,1,1.3,1.8,2.3,2.3"/>
<circle class="st8" cx="840.1" cy="315.1" r="12"/>
<ellipse transform="matrix(0.191 -0.9816 0.9816 0.191 338.9541 981.7861)" class="st16" cx="765.1" cy="285.3" rx="19.7" ry="17.7"/>
<ellipse transform="matrix(0.191 -0.9816 0.9816 0.191 368.8764 1028.7465)" class="st16" cx="808.5" cy="290.6" rx="19.7" ry="17.7"/>
<line class="st16" x1="783.3" y1="287" x2="790.2" y2="287.8"/>
<line class="st13" x1="885" y1="298" x2="883" y2="310.8"/>
<line class="st17" x1="740.3" y1="477.1" x2="750" y2="505.3"/>
<line class="st18" x1="791.5" y1="541.3" x2="766" y2="541.3"/>
<polyline class="st18" points="811.5,469.1 819.5,508.2 819.5,544.3 "/>
<polyline class="st17" points="758.2,379.5 773.4,414 755.3,412 819.5,508.2 "/>
<polyline class="st17" points="906.6,375.4 880.7,412 904.8,410 816.5,488.2 "/>
<line class="st17" x1="920" y1="498" x2="900.8" y2="471.1"/>
<path class="st18" d="M942.2,597c-10.5-3.5-29.3-10.2-40.6-17"/>
<path class="st9" d="M901.8,514.7c-12.3-1.1-24.7-1.2-37.1-0.4c-17.7,1.5-41.5,6.1-51,10.7s-46.1,20.9-36.3,26.4
	c9,5,27.9-2.5,27.9-2.5s-18.8,17.3-22.1,24.6s7.5,11.3,7.5,11.3c2.8,12.4,15.4,7.1,15.4,7.1c8,16.9,50.9-19.7,50.9-19.7
	c10.2,1.1,20.5,0.6,30.6-1.3c0,0,5.4,3,14.2,7.3L901.8,514.7z"/>
<path class="st12" d="M1009.1,599.5c80.2-38.1-36.1-180.5-77.2-213.6l-23.1,93.3l29.1,40.1c-12.7-2.2-24.9-3.7-36.1-4.6v63.4
	C927.2,590.4,980.7,613,1009.1,599.5z"/>
<path class="st13" d="M801.4,549.9c7.1-5.9,18.9-15.4,27.8-21.2"/>
<path class="st13" d="M838.9,542.8c-20.5,13.3-39.2,31-48.4,40.3"/>
<path class="st13" d="M848,557.8c-14,9.6-30.2,24.2-40.9,34.2"/>
</svg>
